<svg t="1731849629122" class="icon" viewBox="0 0 1024 1024" version="1.1" xmlns="http://www.w3.org/2000/svg" p-id="1635" xmlns:xlink="http://www.w3.org/1999/xlink" width="64" height="200"><path d="M1003.56796 470.474919c-59.400116-20.998041-99.598195-77.398151-99.598194-140.398274 1.202002-10.20202-3.600007-18.600036-11.400023-25.800051-6.600013-5.402011-16.798033-7.800015-25.198049-6.602013-50.402098 7.200014-98.400192-7.200014-135.000264-36.600071s-62.402122-73.798144-66.60013-125.398245c-0.600001-9.002018-6.002012-17.402034-13.802027-22.800045-7.800015-4.802009-17.398034-6.002012-26.400051-2.402004-81.600159 29.400057-158.400309-22.200043-188.998369-92.398181-6.002012-13.202026-19.802039-20.40204-34.200067-17.398034-115.202225 25.80005-218.802427 98.120192-289.600566 189.32237-163.79832 210.600411-147.000287 500.402977 36.600072 684.603337 199.80239 199.196389 522.00102 199.196389 721.203408 0 92.39818-92.40218 153.4003-224.126438 153.4003-364.524712-1.206002-19.802039-1.806004-33.000064-20.40604-39.604077z" fill="#FEA832" p-id="1636"></path><path d="M1023.968 510.076996c0 140.398274-61.000119 272.122531-153.4003 364.524712-199.200389 199.196389-521.401018 199.196389-721.203408 0l583.003138-613.527198c36.600071 29.400057 84.598165 43.798086 135.000264 36.600071 8.400016-1.198002 18.600036 1.202002 25.198049 6.602013 7.800015 7.200014 12.602025 15.59603 11.400023 25.800051 0 63.000123 40.198079 119.400233 99.598194 140.398274 18.604036 6.604013 19.204038 19.802039 20.40404 39.602077z" fill="#FE9923" p-id="1637"></path><path d="M386.968756 624.999221c-15.000029-13.198026-35.402069-20.998041-57.000112-20.998041-49.802097 0-90.000176 40.198079-90.000175 90.000175 0 23.400046 9.002018 44.400087 23.400045 60.000118 16.198032 18.600036 40.198079 30.000059 66.60013 30.000058 49.802097 0 90.000176-40.202079 90.000176-90.000176-0.002-28.202055-12.602025-52.800103-33.000064-69.002134z" fill="#994C0F" p-id="1638"></path><path d="M629.96723 604.00118c-49.628097 0-90.000176-40.372079-90.000175-90.000176s40.372079-90.000176 90.000175-90.000176 90.000176 40.372079 90.000176 90.000176-40.370079 90.000176-90.000176 90.000176zM599.967172 844.001648c-33.076065 0-60.000117-26.924053-60.000117-60.000117s26.924053-60.000117 60.000117-60.000117 60.000117 26.924053 60.000117 60.000117-26.924053 60.000117-60.000117 60.000117z" fill="#713708" p-id="1639"></path><path d="M359.966703 424.000828c-33.076065 0-60.000117-26.924053-60.000117-60.000117s26.924053-60.000117 60.000117-60.000117 60.000117 26.924053 60.000117 60.000117-26.924053 60.000117-60.000117 60.000117z" fill="#994C0F" p-id="1640"></path><path d="M808.477579 636.261243m-30.000059 0a30.000059 30.000059 0 1 0 60.000118 0 30.000059 30.000059 0 1 0-60.000118 0Z" fill="#713708" p-id="1641"></path><path d="M208.456407 516.261008m-30.000058 0a30.000059 30.000059 0 1 0 60.000117 0 30.000059 30.000059 0 1 0-60.000117 0Z" fill="#994C0F" p-id="1642"></path><path d="M419.96682 694.001355c0 49.798097-40.198079 90.000176-90.000176 90.000176-26.400052 0-50.402098-11.400022-66.60013-30.000058l123.600242-129.002252c20.40004 16.202032 33.000064 40.80008 33.000064 69.002134z" fill="#713708" p-id="1643"></path></svg>